<?xml version="1.0" encoding="UTF-8" standalone="no"?>
<svg
   xmlns:dc="http://purl.org/dc/elements/1.1/"
   xmlns:cc="http://creativecommons.org/ns#"
   xmlns:rdf="http://www.w3.org/1999/02/22-rdf-syntax-ns#"
   xmlns:svg="http://www.w3.org/2000/svg"
   xmlns="http://www.w3.org/2000/svg"
   xmlns:sodipodi="http://sodipodi.sourceforge.net/DTD/sodipodi-0.dtd"
   xmlns:inkscape="http://www.inkscape.org/namespaces/inkscape"
   sodipodi:docname="logo.svg"
   inkscape:version="1.0.2 (e86c870879, 2021-01-15, custom)"
   id="svg8"
   version="1.1"
   viewBox="0 0 210 297"
   height="297mm"
   width="210mm"
   inkscape:export-filename="C:\Users\PauloFonseca\Documents\work\github\cocada\img\cocada-large-full.png"
   inkscape:export-xdpi="109.71429"
   inkscape:export-ydpi="109.71429">
  <defs
     id="defs2" />
  <sodipodi:namedview
     inkscape:window-maximized="1"
     inkscape:window-y="-8"
     inkscape:window-x="1672"
     inkscape:window-height="1017"
     inkscape:window-width="1920"
     inkscape:guide-bbox="true"
     showguides="false"
     showgrid="false"
     inkscape:document-rotation="0"
     inkscape:current-layer="layer1"
     inkscape:document-units="mm"
     inkscape:cy="561.25984"
     inkscape:cx="465.27659"
     inkscape:zoom="0.73673541"
     inkscape:pageshadow="2"
     inkscape:pageopacity="0.0"
     borderopacity="1.0"
     bordercolor="#666666"
     pagecolor="#ffffff"
     id="base">
    <inkscape:grid
       id="grid833"
       type="xygrid" />
    <sodipodi:guide
       id="guide837"
       orientation="0,-1"
       position="10.583333,286.41667" />
    <sodipodi:guide
       id="guide839"
       orientation="0,-1"
       position="52.916665,267.89584" />
  </sodipodi:namedview>
  <metadata
     id="metadata5">
    <rdf:RDF>
      <cc:Work
         rdf:about="">
        <dc:format>image/svg+xml</dc:format>
        <dc:type
           rdf:resource="http://purl.org/dc/dcmitype/StillImage" />
        <dc:title></dc:title>
      </cc:Work>
    </rdf:RDF>
  </metadata>
  <g
     id="layer1"
     inkscape:groupmode="layer"
     inkscape:label="Layer 1">
    <rect
       inkscape:export-ydpi="64"
       inkscape:export-xdpi="64"
       inkscape:export-filename="C:\Users\PauloFonseca\Documents\work\github\cocada\cocada-large.png"
       y="63.500008"
       x="19.84376"
       height="27.781248"
       width="237.29314"
       id="rect1238"
       style="opacity:1;fill:#ffffff;stroke:none;stroke-width:0.397749" />
    <path
       id="path1003-4"
       style="opacity:0.96;fill:#000000;stroke:#000000;stroke-width:0.189284"
       d="m 86.501096,68.772516 c -3.844833,-1.2215 -8.038043,0.186617 -10.366364,3.481115 -2.328321,3.294499 -2.255948,7.717231 0.17892,10.933785 2.434868,3.216553 6.671905,4.486718 10.474713,3.140073 l -0.883176,-2.494114 c -2.716276,0.961884 -5.742716,0.05463 -7.481899,-2.242898 -1.739182,-2.297526 -1.790877,-5.456605 -0.127799,-7.809806 1.663078,-2.353201 4.658212,-3.358993 7.404507,-2.486498 2.746295,0.872495 4.611757,3.422494 4.611757,6.304053 v 9.260427 h 2.645833 l 3e-6,-9.260417 c 0,-4.034204 -2.611662,-7.604221 -6.456495,-8.82572 z"
       sodipodi:nodetypes="sssccsssscccs"
       inkscape:export-filename="C:\Users\PauloFonseca\Documents\work\github\cocada\cocada.png"
       inkscape:export-xdpi="64"
       inkscape:export-ydpi="64" />
    <path
       sodipodi:nodetypes="sssccsssscccs"
       d="m 105.90369,86.423894 c -3.84484,1.2215 -8.038046,-0.186617 -10.366352,-3.481115 -2.32832,-3.294499 -2.25595,-7.717231 0.17892,-10.933785 2.434856,-3.216553 6.671892,-4.486718 10.474702,-3.140073 l -0.88318,2.494114 c -2.71628,-0.961884 -5.742717,-0.05463 -7.481896,2.242898 -1.739176,2.297526 -1.790866,5.456605 -0.1278,7.809806 1.663079,2.353201 4.658206,3.358993 7.404506,2.486498 2.74629,-0.872495 4.61177,-3.422495 4.61177,-6.304054 v -9.260426 h 2.64583 v 9.260417 c 0,4.034204 -2.61166,7.604221 -6.4565,8.82572 z"
       style="opacity:0.96;fill:#000000;stroke:#000000;stroke-width:0.189284"
       id="path1003-4-9"
       inkscape:export-filename="C:\Users\PauloFonseca\Documents\work\github\cocada\cocada.png"
       inkscape:export-xdpi="64"
       inkscape:export-ydpi="64" />
    <path
       sodipodi:nodetypes="sssccsssscccs"
       d="m 125.30629,68.772516 c -3.84483,-1.2215 -8.03805,0.186617 -10.36637,3.481115 -2.32832,3.294499 -2.25594,7.717231 0.17892,10.933785 2.43487,3.216553 6.67191,4.486718 10.47472,3.140073 l -0.88318,-2.494114 c -2.71627,0.961884 -5.74271,0.05463 -7.4819,-2.242898 -1.73918,-2.297526 -1.79088,-5.456605 -0.1278,-7.809806 1.66308,-2.353201 4.65822,-3.358993 7.40451,-2.486498 2.7463,0.872495 4.61176,3.422494 4.61176,6.304053 v 9.260427 h 2.64583 l 1e-5,-9.260417 c 0,-4.034204 -2.61167,-7.604221 -6.4565,-8.82572 z"
       style="opacity:0.96;fill:#000000;stroke:#000000;stroke-width:0.189284"
       id="path1003-4-5"
       inkscape:export-filename="C:\Users\PauloFonseca\Documents\work\github\cocada\cocada.png"
       inkscape:export-xdpi="64"
       inkscape:export-ydpi="64" />
    <path
       sodipodi:nodetypes="sssccsssscccs"
       d="m 55.468341,80.402673 c -1.2215,-3.844833 0.186617,-8.038043 3.481115,-10.366364 3.294499,-2.328321 7.71723,-2.255948 10.933784,0.17892 3.216553,2.434868 4.486718,6.671905 3.140073,10.474714 l -2.494114,-0.883177 c 0.961884,-2.716276 0.05463,-5.742716 -2.242898,-7.481899 -2.297526,-1.739182 -5.456604,-1.790877 -7.809805,-0.127799 -2.353201,1.663078 -3.358993,4.658212 -2.486498,7.404507 0.872495,2.746295 3.422494,4.611757 6.304053,4.611757 h 9.260426 v 2.645833 l -9.260416,3e-6 c -4.034204,0 -7.604221,-2.611661 -8.82572,-6.456495 z"
       style="opacity:0.96;fill:#000000;stroke:#000000;stroke-width:0.189284"
       id="path1003-4-0"
       inkscape:export-filename="C:\Users\PauloFonseca\Documents\work\github\cocada\cocada.png"
       inkscape:export-xdpi="64"
       inkscape:export-ydpi="64" />
    <path
       id="path1003-4-0-7"
       style="opacity:0.96;fill:#000000;stroke:#000000;stroke-width:0.189284"
       d="m 23.982904,80.402673 c -1.2215,-3.844832 0.186617,-8.038042 3.481115,-10.366363 3.294499,-2.328321 7.71723,-2.255948 10.933784,0.17892 3.216553,2.434867 4.486718,6.671905 3.140073,10.474713 l -2.494113,-0.883177 c 0.961884,-2.716275 0.05463,-5.742715 -2.242899,-7.481898 -2.297526,-1.739182 -5.456604,-1.790877 -7.809805,-0.127799 -2.353201,1.663078 -3.358993,4.658212 -2.486498,7.404506 0.872495,2.746295 3.422494,4.611757 6.304053,4.611757 h 9.260426 v 2.645833 l -9.260416,3e-6 c -4.034204,0 -7.604221,-2.61166 -8.82572,-6.456495 z"
       sodipodi:nodetypes="sssccsssscccs"
       inkscape:export-filename="C:\Users\PauloFonseca\Documents\work\github\cocada\cocada.png"
       inkscape:export-xdpi="64"
       inkscape:export-ydpi="64" />
    <g
       id="g1153"
       transform="translate(-45.825353,-21.31656)"
       inkscape:export-filename="C:\Users\PauloFonseca\Documents\work\github\cocada\cocada.png"
       inkscape:export-xdpi="64"
       inkscape:export-ydpi="64">
      <path
         style="opacity:1;fill:#ffffff;stroke:#ffffff;stroke-width:0.264999"
         d="m 95.588964,90.290369 a 8.5873138,8.5873138 0 0 1 0.05323,0 8.5873138,8.5873138 0 0 1 8.587096,8.587073 8.5873138,8.5873138 0 0 1 -8.587098,8.587068 8.5873138,8.5873138 0 0 1 -8.587074,-8.587068 8.5873138,8.5873138 0 0 1 8.533846,-8.587073 z"
         id="path1222" />
      <path
         d="m 95.582563,89.617034 a 9.2604168,9.2604168 0 0 0 -9.19272,9.260416 9.2604168,9.2604168 0 0 0 9.260417,9.26042 9.2604168,9.2604168 0 0 0 9.26042,-9.26042 9.2604168,9.2604168 0 0 0 -9.26042,-9.260416 9.2604168,9.2604168 0 0 0 -0.0677,0 z m 0.01447,0.673343 a 8.5873136,8.5873136 0 0 1 0.05323,0 8.5873136,8.5873136 0 0 1 8.587067,8.587073 8.5873136,8.5873136 0 0 1 -8.587069,8.58708 8.5873136,8.5873136 0 0 1 -8.587074,-8.58708 8.5873136,8.5873136 0 0 1 8.533846,-8.587073 z"
         style="opacity:1;fill:#784421;stroke:#552200;stroke-width:0.264999"
         id="path1082" />
      <g
         id="g1173"
         transform="translate(21.166667,1.3229166)">
        <circle
           r="6.4666314"
           cy="97.554504"
           cx="74.483589"
           id="path1082-4"
           style="opacity:1;fill:#ffffff;stroke:#b3b3b3;stroke-width:0.185051" />
        <path
           id="path1082-4-4"
           style="opacity:1;fill:#e6e6e6;stroke:#e6e6e6;stroke-width:0.185051"
           d="m 74.454266,91.049549 c -3.556399,0.02123 -6.42818,2.910326 -6.42803,6.466789 7e-6,2.857682 1.875777,5.376552 4.61367,6.195412 -1.2717,-1.0345 -2.00986,-2.58673 -2.0097,-4.226018 3.2e-5,-0.458526 0.05672,-0.903816 0.16344,-1.329252 0.593447,-2.365716 2.73406,-4.117516 5.28378,-4.117449 2.056702,9.5e-5 3.937991,1.158612 4.86378,2.995168 -0.252242,-3.374853 -3.063914,-5.984407 -6.44818,-5.98465 -0.01293,-3.9e-5 -0.02587,-3.9e-5 -0.0388,0 z"
           sodipodi:nodetypes="ccccsccccc" />
        <circle
           style="opacity:1;fill:none;stroke:#b3b3b3;stroke-width:0.185051"
           id="path1082-4-0"
           cx="74.483589"
           cy="97.554504"
           r="6.4666314" />
      </g>
    </g>
    <g
       aria-label="collection of algorithms
and data structures"
       id="text849"
       style="font-size:10.996px;line-height:0.85;font-family:Symbol;-inkscape-font-specification:Symbol;letter-spacing:0px;word-spacing:0px;stroke-width:0.274901"
       inkscape:export-xdpi="64"
       inkscape:export-ydpi="64">
      <path
         d="m 142.50864,75.969223 q 0.088,-0.07697 0.15944,-0.07697 0.033,0 0.0715,0.01649 0.0385,0.01649 0.0715,0.06048 l 0.14294,0.186932 q 0.044,0.06048 0.044,0.104462 0.005,0.04398 -0.033,0.09347 -0.0385,0.04398 -0.11546,0.120956 -0.38486,0.362868 -0.85769,0.57729 -0.46733,0.208924 -1.03362,0.208924 -0.58829,0 -1.08311,-0.21992 -0.49482,-0.21992 -0.85768,-0.60478 -0.36287,-0.38486 -0.5663,-0.896174 -0.20342,-0.511314 -0.20342,-1.0996 0,-0.582788 0.20342,-1.094102 0.20343,-0.516812 0.5663,-0.896174 0.36286,-0.38486 0.85768,-0.60478 0.49482,-0.21992 1.08311,-0.21992 0.53331,0 0.98964,0.186932 0.45633,0.181434 0.8302,0.511314 0.0605,0.04398 0.11546,0.10996 0.055,0.06048 0.055,0.126454 0,0.06598 -0.0495,0.120956 l -0.11545,0.148446 q -0.0495,0.06048 -0.088,0.09347 -0.033,0.02749 -0.077,0.02749 -0.0715,0 -0.15395,-0.08247 -0.29689,-0.291394 -0.67625,-0.456334 -0.37387,-0.170438 -0.8192,-0.170438 -0.45634,0 -0.8412,0.175936 -0.37936,0.170438 -0.65976,0.472828 -0.2749,0.296892 -0.43434,0.698246 -0.15394,0.401354 -0.15394,0.85219 0,0.456334 0.15394,0.857688 0.15944,0.395856 0.43434,0.698246 0.2804,0.30239 0.65976,0.478326 0.38486,0.170438 0.8412,0.170438 0.21992,0 0.42884,-0.04948 0.21442,-0.05498 0.41235,-0.148446 0.19793,-0.09347 0.37386,-0.214422 0.17594,-0.120956 0.32439,-0.263904 z"
         style="font-style:normal;font-variant:normal;font-weight:normal;font-stretch:normal;font-family:COCOMAT;-inkscape-font-specification:COCOMAT;stroke-width:0.274901"
         id="path850" />
      <path
         d="m 143.55324,74.457273 q 0,-0.582788 0.21992,-1.094102 0.21992,-0.516812 0.59928,-0.896174 0.37937,-0.38486 0.89068,-0.60478 0.51131,-0.21992 1.0941,-0.21992 0.58279,0 1.0941,0.21992 0.51682,0.21992 0.89618,0.60478 0.38486,0.379362 0.60478,0.896174 0.21992,0.511314 0.21992,1.094102 0,0.582788 -0.21992,1.094102 -0.21992,0.511314 -0.60478,0.896174 -0.37936,0.379362 -0.89618,0.599282 -0.51131,0.21992 -1.0941,0.21992 -0.58279,0 -1.0941,-0.21992 -0.51131,-0.21992 -0.89068,-0.599282 -0.37936,-0.38486 -0.59928,-0.896174 -0.21992,-0.511314 -0.21992,-1.094102 z m 0.60478,0 q 0,0.456334 0.17594,0.857688 0.17593,0.395856 0.47283,0.698246 0.30239,0.30239 0.70374,0.478326 0.40135,0.170438 0.85769,0.170438 0.45083,0 0.85219,-0.170438 0.40685,-0.175936 0.70374,-0.478326 0.30239,-0.30239 0.47833,-0.698246 0.17593,-0.401354 0.17593,-0.857688 0,-0.456334 -0.17593,-0.857688 -0.17594,-0.406852 -0.47833,-0.703744 -0.29689,-0.30239 -0.70374,-0.478326 -0.40136,-0.175936 -0.85219,-0.175936 -0.45634,0 -0.85769,0.175936 -0.40135,0.175936 -0.70374,0.478326 -0.2969,0.296892 -0.47283,0.703744 -0.17594,0.401354 -0.17594,0.857688 z"
         style="font-style:normal;font-variant:normal;font-weight:normal;font-stretch:normal;font-family:COCOMAT;-inkscape-font-specification:COCOMAT;stroke-width:0.274901"
         id="path852" />
      <path
         d="m 150.54668,69.173695 q 0,-0.09347 0.055,-0.142948 0.0605,-0.05498 0.15394,-0.05498 h 0.17044 q 0.099,0 0.14295,0.05498 0.0495,0.04948 0.0605,0.142948 0.011,0.13745 0.0165,0.296892 0.011,0.159442 0.011,0.324382 v 7.1474 q 0,0.197928 -0.20343,0.197928 h -0.19243 q -0.21442,0 -0.21442,-0.197928 z"
         style="font-style:normal;font-variant:normal;font-weight:normal;font-stretch:normal;font-family:COCOMAT;-inkscape-font-specification:COCOMAT;stroke-width:0.274901"
         id="path854" />
      <path
         d="m 152.91632,69.173695 q 0,-0.09347 0.055,-0.142948 0.0605,-0.05498 0.15394,-0.05498 h 0.17044 q 0.099,0 0.14295,0.05498 0.0495,0.04948 0.0605,0.142948 0.011,0.13745 0.0165,0.296892 0.011,0.159442 0.011,0.324382 v 7.1474 q 0,0.197928 -0.20342,0.197928 h -0.19243 q -0.21442,0 -0.21442,-0.197928 z"
         style="font-style:normal;font-variant:normal;font-weight:normal;font-stretch:normal;font-family:COCOMAT;-inkscape-font-specification:COCOMAT;stroke-width:0.274901"
         id="path856" />
      <path
         d="m 157.69957,76.661971 q 0.36287,0 0.69825,-0.104462 0.33538,-0.10996 0.61578,-0.318884 0.0715,-0.05498 0.15944,-0.120956 0.088,-0.06598 0.14845,-0.07697 0.044,0 0.0935,0.04398 0.0495,0.04398 0.0935,0.10996 0.044,0.06048 0.0715,0.13745 0.033,0.07697 0.033,0.142948 -0.0495,0.08247 -0.13195,0.153944 -0.077,0.07147 -0.15395,0.126454 -0.34637,0.236414 -0.74773,0.373864 -0.40135,0.131952 -0.86868,0.131952 -0.58279,0 -1.0996,-0.21992 -0.51131,-0.21992 -0.89617,-0.599282 -0.37937,-0.379362 -0.59929,-0.890676 -0.21992,-0.511314 -0.21992,-1.094102 0,-0.582788 0.21443,-1.094102 0.21442,-0.516812 0.58278,-0.896174 0.36837,-0.38486 0.85769,-0.60478 0.49482,-0.21992 1.05562,-0.21992 0.5388,0 1.01163,0.208924 0.47833,0.208924 0.8357,0.57729 0.35737,0.368366 0.56629,0.874182 0.20893,0.500318 0.20893,1.083106 0,0.175936 -0.10447,0.230916 -0.10446,0.04948 -0.2639,0.04948 h -4.34342 q 0.033,0.423346 0.21442,0.791712 0.18693,0.362868 0.47833,0.63227 0.29689,0.263904 0.67625,0.417848 0.38486,0.153944 0.8137,0.153944 z m 1.92431,-2.540076 q -0.044,-0.390358 -0.21992,-0.731234 -0.17044,-0.346374 -0.44534,-0.599282 -0.2694,-0.252908 -0.62128,-0.395856 -0.34637,-0.148446 -0.73673,-0.148446 -0.39036,0 -0.74223,0.142948 -0.35187,0.142948 -0.63227,0.395856 -0.2749,0.252908 -0.46183,0.599282 -0.18693,0.340876 -0.24741,0.736732 z"
         style="font-style:normal;font-variant:normal;font-weight:normal;font-stretch:normal;font-family:COCOMAT;-inkscape-font-specification:COCOMAT;stroke-width:0.274901"
         id="path858" />
      <path
         d="m 165.41876,75.969223 q 0.088,-0.07697 0.15944,-0.07697 0.033,0 0.0715,0.01649 0.0385,0.01649 0.0715,0.06048 l 0.14295,0.186932 q 0.044,0.06048 0.044,0.104462 0.005,0.04398 -0.033,0.09347 -0.0385,0.04398 -0.11545,0.120956 -0.38486,0.362868 -0.85769,0.57729 -0.46733,0.208924 -1.03363,0.208924 -0.58828,0 -1.0831,-0.21992 -0.49482,-0.21992 -0.85769,-0.60478 -0.36287,-0.38486 -0.56629,-0.896174 -0.20343,-0.511314 -0.20343,-1.0996 0,-0.582788 0.20343,-1.094102 0.20342,-0.516812 0.56629,-0.896174 0.36287,-0.38486 0.85769,-0.60478 0.49482,-0.21992 1.0831,-0.21992 0.53331,0 0.98964,0.186932 0.45634,0.181434 0.8302,0.511314 0.0605,0.04398 0.11546,0.10996 0.055,0.06048 0.055,0.126454 0,0.06598 -0.0495,0.120956 l -0.11546,0.148446 q -0.0495,0.06048 -0.088,0.09347 -0.033,0.02749 -0.077,0.02749 -0.0715,0 -0.15394,-0.08247 -0.2969,-0.291394 -0.67626,-0.456334 -0.37386,-0.170438 -0.8192,-0.170438 -0.45633,0 -0.84119,0.175936 -0.37937,0.170438 -0.65976,0.472828 -0.2749,0.296892 -0.43435,0.698246 -0.15394,0.401354 -0.15394,0.85219 0,0.456334 0.15394,0.857688 0.15945,0.395856 0.43435,0.698246 0.28039,0.30239 0.65976,0.478326 0.38486,0.170438 0.84119,0.170438 0.21992,0 0.42884,-0.04948 0.21443,-0.05498 0.41235,-0.148446 0.19793,-0.09347 0.37387,-0.214422 0.17593,-0.120956 0.32438,-0.263904 z"
         style="font-style:normal;font-variant:normal;font-weight:normal;font-stretch:normal;font-family:COCOMAT;-inkscape-font-specification:COCOMAT;stroke-width:0.274901"
         id="path860" />
      <path
         d="m 169.08592,76.579501 q 0.0935,0 0.15944,0.05498 0.0715,0.04948 0.0715,0.159442 v 0.181434 q 0,0.126454 -0.077,0.170438 -0.0715,0.04398 -0.18143,0.04398 h -0.16494 q -0.2804,0 -0.52231,-0.03849 -0.24191,-0.03299 -0.41785,-0.16494 -0.17593,-0.131952 -0.2804,-0.390358 -0.099,-0.263904 -0.099,-0.71474 v -3.535214 h -0.75872 q -0.10996,0 -0.16494,-0.04398 -0.0495,-0.04398 -0.0495,-0.153944 v -0.203426 q 0,-0.10996 0.0495,-0.153944 0.055,-0.04398 0.16494,-0.04398 h 0.75872 v -1.62191 q 0,-0.16494 0.18143,-0.19243 l 0.2749,-0.03849 q 0.10996,0 0.14845,0.06598 0.0385,0.06598 0.0385,0.16494 v 1.62191 h 0.95115 q 0.099,0 0.15394,0.04948 0.0605,0.04948 0.0605,0.159442 v 0.181434 q 0,0.10996 -0.0605,0.159442 -0.055,0.04948 -0.15394,0.04948 h -0.95115 v 3.386768 q 0,0.291394 0.0385,0.456334 0.0385,0.159442 0.12096,0.241912 0.0825,0.08247 0.20342,0.10996 0.12646,0.02199 0.30239,0.03849 z"
         style="font-style:normal;font-variant:normal;font-weight:normal;font-stretch:normal;font-family:COCOMAT;-inkscape-font-specification:COCOMAT;stroke-width:0.274901"
         id="path862" />
      <path
         d="m 170.60885,71.955683 q 0,-0.09347 0.055,-0.148446 0.0605,-0.05498 0.15395,-0.05498 h 0.19792 q 0.099,0 0.14845,0.05498 0.055,0.05498 0.055,0.148446 v 4.986686 q 0,0.197928 -0.20343,0.197928 h -0.19243 q -0.21442,0 -0.21442,-0.197928 z m -0.16494,-1.819838 q 0,-0.197928 0.13745,-0.335378 0.14295,-0.142948 0.34088,-0.142948 0.19793,0 0.33538,0.142948 0.14294,0.13745 0.14294,0.335378 0,0.197928 -0.14294,0.340876 -0.13745,0.13745 -0.33538,0.13745 -0.19793,0 -0.34088,-0.13745 -0.13745,-0.142948 -0.13745,-0.340876 z"
         style="font-style:normal;font-variant:normal;font-weight:normal;font-stretch:normal;font-family:COCOMAT;-inkscape-font-specification:COCOMAT;stroke-width:0.274901"
         id="path864" />
      <path
         d="m 172.57712,74.457273 q 0,-0.582788 0.21992,-1.094102 0.21992,-0.516812 0.59928,-0.896174 0.37936,-0.38486 0.89068,-0.60478 0.51131,-0.21992 1.0941,-0.21992 0.58279,0 1.0941,0.21992 0.51681,0.21992 0.89617,0.60478 0.38486,0.379362 0.60478,0.896174 0.21992,0.511314 0.21992,1.094102 0,0.582788 -0.21992,1.094102 -0.21992,0.511314 -0.60478,0.896174 -0.37936,0.379362 -0.89617,0.599282 -0.51131,0.21992 -1.0941,0.21992 -0.58279,0 -1.0941,-0.21992 -0.51132,-0.21992 -0.89068,-0.599282 -0.37936,-0.38486 -0.59928,-0.896174 -0.21992,-0.511314 -0.21992,-1.094102 z m 0.60478,0 q 0,0.456334 0.17593,0.857688 0.17594,0.395856 0.47283,0.698246 0.30239,0.30239 0.70375,0.478326 0.40135,0.170438 0.85768,0.170438 0.45084,0 0.85219,-0.170438 0.40686,-0.175936 0.70375,-0.478326 0.30239,-0.30239 0.47832,-0.698246 0.17594,-0.401354 0.17594,-0.857688 0,-0.456334 -0.17594,-0.857688 -0.17593,-0.406852 -0.47832,-0.703744 -0.29689,-0.30239 -0.70375,-0.478326 -0.40135,-0.175936 -0.85219,-0.175936 -0.45633,0 -0.85768,0.175936 -0.40136,0.175936 -0.70375,0.478326 -0.29689,0.296892 -0.47283,0.703744 -0.17593,0.401354 -0.17593,0.857688 z"
         style="font-style:normal;font-variant:normal;font-weight:normal;font-stretch:normal;font-family:COCOMAT;-inkscape-font-specification:COCOMAT;stroke-width:0.274901"
         id="path866" />
      <path
         d="m 180.16434,76.942369 q 0,0.197928 -0.20343,0.197928 h -0.22541 q -0.20893,0 -0.20893,-0.197928 v -5.036168 q 0,-0.07697 0.044,-0.126454 0.044,-0.04948 0.12645,-0.04948 h 0.32438 q 0.0495,0 0.0825,0.03299 0.0385,0.03299 0.044,0.08797 l 0.0165,0.747728 q 0.13745,-0.203426 0.32438,-0.379362 0.18693,-0.175936 0.41235,-0.30239 0.22542,-0.131952 0.47833,-0.203426 0.2584,-0.07697 0.5388,-0.07697 0.47283,0 0.87418,0.175936 0.40686,0.175936 0.70375,0.483824 0.29689,0.307888 0.46733,0.725736 0.17044,0.41235 0.17044,0.885178 v 3.012904 q 0,0.10996 -0.0605,0.16494 -0.055,0.05498 -0.15395,0.05498 h -0.22541 q -0.10996,0 -0.15395,-0.04948 -0.044,-0.05498 -0.044,-0.16494 v -3.029398 q -0.005,-0.340876 -0.13745,-0.637768 -0.13195,-0.296892 -0.35737,-0.516812 -0.21992,-0.21992 -0.51681,-0.346374 -0.2969,-0.126454 -0.63227,-0.126454 -0.32988,0 -0.63227,0.120956 -0.2969,0.120956 -0.52781,0.335378 -0.23092,0.208924 -0.37387,0.500318 -0.13745,0.285896 -0.15394,0.621274 z"
         style="font-style:normal;font-variant:normal;font-weight:normal;font-stretch:normal;font-family:COCOMAT;-inkscape-font-specification:COCOMAT;stroke-width:0.274901"
         id="path868" />
      <path
         d="m 188.66973,74.457273 q 0,-0.582788 0.21992,-1.094102 0.21992,-0.516812 0.59929,-0.896174 0.37936,-0.38486 0.89067,-0.60478 0.51132,-0.21992 1.0941,-0.21992 0.58279,0 1.09411,0.21992 0.51681,0.21992 0.89617,0.60478 0.38486,0.379362 0.60478,0.896174 0.21992,0.511314 0.21992,1.094102 0,0.582788 -0.21992,1.094102 -0.21992,0.511314 -0.60478,0.896174 -0.37936,0.379362 -0.89617,0.599282 -0.51132,0.21992 -1.09411,0.21992 -0.58278,0 -1.0941,-0.21992 -0.51131,-0.21992 -0.89067,-0.599282 -0.37937,-0.38486 -0.59929,-0.896174 -0.21992,-0.511314 -0.21992,-1.094102 z m 0.60478,0 q 0,0.456334 0.17594,0.857688 0.17594,0.395856 0.47283,0.698246 0.30239,0.30239 0.70374,0.478326 0.40136,0.170438 0.85769,0.170438 0.45084,0 0.85219,-0.170438 0.40685,-0.175936 0.70374,-0.478326 0.30239,-0.30239 0.47833,-0.698246 0.17594,-0.401354 0.17594,-0.857688 0,-0.456334 -0.17594,-0.857688 -0.17594,-0.406852 -0.47833,-0.703744 -0.29689,-0.30239 -0.70374,-0.478326 -0.40135,-0.175936 -0.85219,-0.175936 -0.45633,0 -0.85769,0.175936 -0.40135,0.175936 -0.70374,0.478326 -0.29689,0.296892 -0.47283,0.703744 -0.17594,0.401354 -0.17594,0.857688 z"
         style="font-style:normal;font-variant:normal;font-weight:normal;font-stretch:normal;font-family:COCOMAT;-inkscape-font-specification:COCOMAT;stroke-width:0.274901"
         id="path870" />
      <path
         d="m 197.64795,68.959273 q 0.22542,0.01649 0.22542,0.225418 v 0.16494 q 0,0.104462 -0.066,0.159442 -0.0605,0.05498 -0.14295,0.05498 h -0.033 q -0.23641,0 -0.43434,0.03849 -0.19243,0.03849 -0.32988,0.159442 -0.13745,0.120956 -0.21442,0.346374 -0.0715,0.21992 -0.0715,0.588286 v 1.055616 h 0.95665 q 0.0935,0 0.15394,0.05498 0.0605,0.04948 0.0605,0.16494 v 0.126454 q 0,0.10996 -0.0605,0.175936 -0.0605,0.06048 -0.15394,0.06048 h -0.95665 v 4.601826 q 0,0.104462 -0.066,0.159442 -0.066,0.05498 -0.15944,0.05498 h -0.18144 q -0.10446,0 -0.15944,-0.06048 -0.0495,-0.06048 -0.0495,-0.153944 v -4.601826 h -0.67076 q -0.099,0 -0.15394,-0.06048 -0.055,-0.06598 -0.055,-0.175936 v -0.126454 q 0,-0.21992 0.20892,-0.21992 h 0.67076 v -1.083106 q 0,-0.819202 0.37936,-1.26454 0.38486,-0.450836 1.1051,-0.450836 0.0495,0 0.099,0 0.0495,0 0.099,0.0055 z"
         style="font-style:normal;font-variant:normal;font-weight:normal;font-stretch:normal;font-family:COCOMAT;-inkscape-font-specification:COCOMAT;stroke-width:0.274901"
         id="path872" />
      <path
         d="m 207.36289,76.953365 q 0,0.09347 -0.0605,0.148446 -0.0605,0.04948 -0.16494,0.04948 h -0.17593 q -0.21992,0 -0.21992,-0.21992 v -0.956652 q -0.099,0.307888 -0.2914,0.5498 -0.19243,0.236414 -0.45633,0.401354 -0.25841,0.16494 -0.57729,0.252908 -0.31889,0.08797 -0.67626,0.08797 -0.56079,0 -1.04462,-0.21992 -0.48382,-0.21992 -0.84119,-0.599282 -0.35187,-0.379362 -0.5553,-0.890676 -0.20342,-0.511314 -0.20342,-1.094102 0,-0.582788 0.19792,-1.094102 0.20343,-0.516812 0.5553,-0.901672 0.35737,-0.38486 0.8412,-0.60478 0.48382,-0.21992 1.05011,-0.21992 0.36287,0 0.68725,0.09347 0.32988,0.09347 0.59379,0.263904 0.2639,0.170438 0.45083,0.406852 0.18694,0.230916 0.26941,0.511314 l 0.022,-0.940158 q 0.006,-0.10996 0.055,-0.16494 0.0495,-0.06048 0.15944,-0.06048 h 0.15944 q 0.099,0 0.15944,0.06048 0.066,0.05498 0.066,0.16494 z m -0.62677,-2.485096 q 0,-0.450836 -0.14845,-0.85219 -0.14295,-0.401354 -0.40685,-0.703744 -0.2639,-0.30239 -0.63227,-0.478326 -0.36837,-0.175936 -0.80821,-0.175936 -0.44533,0 -0.8192,0.175936 -0.36836,0.175936 -0.63777,0.478326 -0.2639,0.296892 -0.41784,0.698246 -0.14845,0.401354 -0.14845,0.85219 0,0.450836 0.14845,0.85219 0.15394,0.395856 0.42334,0.692748 0.2694,0.296892 0.63777,0.472828 0.37386,0.170438 0.8137,0.170438 0.43435,0 0.80271,-0.170438 0.36837,-0.170438 0.63227,-0.461832 0.26391,-0.296892 0.41235,-0.692748 0.14845,-0.401354 0.14845,-0.857688 z"
         style="font-style:normal;font-variant:normal;font-weight:normal;font-stretch:normal;font-family:COCOMAT;-inkscape-font-specification:COCOMAT;stroke-width:0.274901"
         id="path874" />
      <path
         d="m 209.03428,69.173695 q 0,-0.09347 0.055,-0.142948 0.0605,-0.05498 0.15395,-0.05498 h 0.17043 q 0.099,0 0.14295,0.05498 0.0495,0.04948 0.0605,0.142948 0.011,0.13745 0.0165,0.296892 0.011,0.159442 0.011,0.324382 v 7.1474 q 0,0.197928 -0.20343,0.197928 h -0.19243 q -0.21442,0 -0.21442,-0.197928 z"
         style="font-style:normal;font-variant:normal;font-weight:normal;font-stretch:normal;font-family:COCOMAT;-inkscape-font-specification:COCOMAT;stroke-width:0.274901"
         id="path876" />
      <path
         d="m 216.31913,75.963725 v 0.01649 0.269402 q 0,0.07147 0,0.131952 0,0.06048 -0.006,0.131952 0,0.709242 -0.21992,1.231552 -0.21442,0.527808 -0.57729,0.874182 -0.36287,0.346374 -0.84119,0.516812 -0.47833,0.175936 -0.99514,0.175936 -0.42884,0 -0.76972,-0.104462 -0.34088,-0.104462 -0.65976,-0.280398 h 0.006 q -0.0715,-0.03849 -0.10446,-0.07147 -0.033,-0.02749 -0.033,-0.07697 0,-0.02749 0.033,-0.08247 0.033,-0.05498 0.0715,-0.115458 0.044,-0.06048 0.0825,-0.115458 0.0385,-0.04948 0.0495,-0.06598 0.033,-0.04948 0.0715,-0.06048 0.044,-0.011 0.0935,0 0.0495,0.011 0.10446,0.03849 0.055,0.03299 0.12096,0.06048 0.20892,0.09347 0.43984,0.159442 0.23641,0.06598 0.46733,0.06598 0.38486,0 0.74773,-0.131952 0.36836,-0.131952 0.64876,-0.395856 0.2859,-0.258406 0.45634,-0.648764 0.17043,-0.390358 0.17043,-0.901672 v -0.5498 q -0.10996,0.291394 -0.31338,0.52231 -0.19793,0.230916 -0.46733,0.390358 -0.2694,0.153944 -0.58829,0.236414 -0.31888,0.08247 -0.66526,0.08247 -0.56079,0 -1.04462,-0.21992 -0.48382,-0.21992 -0.84119,-0.599282 -0.35187,-0.379362 -0.5553,-0.890676 -0.20342,-0.511314 -0.20342,-1.094102 0,-0.582788 0.19792,-1.094102 0.20343,-0.516812 0.5553,-0.901672 0.35737,-0.38486 0.8412,-0.60478 0.48382,-0.21992 1.05011,-0.21992 0.36287,0 0.69825,0.09347 0.33538,0.09347 0.60478,0.263904 0.2749,0.170438 0.47283,0.406852 0.19793,0.230916 0.2804,0.511314 l 0.022,-0.940158 q 0.005,-0.10996 0.055,-0.16494 0.0495,-0.06048 0.15944,-0.06048 h 0.15944 q 0.099,0 0.15944,0.06048 0.066,0.05498 0.066,0.16494 z m -0.62677,-1.495456 q 0,-0.450836 -0.15395,-0.85219 -0.15394,-0.401354 -0.42884,-0.703744 -0.2749,-0.30239 -0.65426,-0.478326 -0.37387,-0.175936 -0.81371,-0.175936 -0.44533,0 -0.8192,0.175936 -0.36836,0.175936 -0.63777,0.478326 -0.2639,0.296892 -0.41784,0.698246 -0.14845,0.401354 -0.14845,0.85219 0,0.450836 0.14845,0.85219 0.15394,0.395856 0.42334,0.692748 0.2694,0.296892 0.63777,0.472828 0.37386,0.170438 0.8137,0.170438 0.43435,0 0.80821,-0.170438 0.37936,-0.170438 0.65426,-0.461832 0.2749,-0.296892 0.42885,-0.692748 0.15944,-0.401354 0.15944,-0.857688 z"
         style="font-style:normal;font-variant:normal;font-weight:normal;font-stretch:normal;font-family:COCOMAT;-inkscape-font-specification:COCOMAT;stroke-width:0.274901"
         id="path878" />
      <path
         d="m 217.55617,74.457273 q 0,-0.582788 0.21992,-1.094102 0.21992,-0.516812 0.59928,-0.896174 0.37936,-0.38486 0.89068,-0.60478 0.51131,-0.21992 1.0941,-0.21992 0.58279,0 1.0941,0.21992 0.51681,0.21992 0.89618,0.60478 0.38486,0.379362 0.60478,0.896174 0.21992,0.511314 0.21992,1.094102 0,0.582788 -0.21992,1.094102 -0.21992,0.511314 -0.60478,0.896174 -0.37937,0.379362 -0.89618,0.599282 -0.51131,0.21992 -1.0941,0.21992 -0.58279,0 -1.0941,-0.21992 -0.51132,-0.21992 -0.89068,-0.599282 -0.37936,-0.38486 -0.59928,-0.896174 -0.21992,-0.511314 -0.21992,-1.094102 z m 0.60478,0 q 0,0.456334 0.17594,0.857688 0.17593,0.395856 0.47282,0.698246 0.30239,0.30239 0.70375,0.478326 0.40135,0.170438 0.85769,0.170438 0.45083,0 0.85219,-0.170438 0.40685,-0.175936 0.70374,-0.478326 0.30239,-0.30239 0.47833,-0.698246 0.17593,-0.401354 0.17593,-0.857688 0,-0.456334 -0.17593,-0.857688 -0.17594,-0.406852 -0.47833,-0.703744 -0.29689,-0.30239 -0.70374,-0.478326 -0.40136,-0.175936 -0.85219,-0.175936 -0.45634,0 -0.85769,0.175936 -0.40136,0.175936 -0.70375,0.478326 -0.29689,0.296892 -0.47282,0.703744 -0.17594,0.401354 -0.17594,0.857688 z"
         style="font-style:normal;font-variant:normal;font-weight:normal;font-stretch:normal;font-family:COCOMAT;-inkscape-font-specification:COCOMAT;stroke-width:0.274901"
         id="path880" />
      <path
         d="m 224.50563,71.999667 q 0,-0.252908 0.24191,-0.252908 h 0.12095 q 0.26941,0 0.26941,0.252908 v 0.21992 0.351872 q 0.077,-0.197928 0.21442,-0.362868 0.14295,-0.170438 0.32438,-0.285896 0.18693,-0.120956 0.41235,-0.186932 0.23092,-0.06598 0.48932,-0.06598 0.16494,0 0.36837,0.04398 0.20342,0.04398 0.37936,0.115458 0.18143,0.07147 0.30239,0.16494 0.12096,0.08797 0.12096,0.181434 0,0.05498 -0.033,0.126454 -0.033,0.07147 -0.0825,0.13745 -0.044,0.06598 -0.0935,0.10996 -0.0495,0.04398 -0.0825,0.04398 -0.044,0 -0.0715,0 -0.022,-0.0055 -0.055,-0.02749 -0.15944,-0.09896 -0.36837,-0.181434 -0.20892,-0.08247 -0.42334,-0.08247 -0.30789,0 -0.5663,0.142948 -0.25291,0.13745 -0.43984,0.373864 -0.18143,0.230916 -0.29139,0.533306 -0.10446,0.296892 -0.10446,0.615776 l 0.005,2.974418 q 0,0.197928 -0.20342,0.197928 h -0.0495 -0.17594 q -0.20892,0 -0.20892,-0.197928 v -0.05498 z"
         style="font-style:normal;font-variant:normal;font-weight:normal;font-stretch:normal;font-family:COCOMAT;-inkscape-font-specification:COCOMAT;stroke-width:0.274901"
         id="path882" />
      <path
         d="m 228.96449,71.955683 q 0,-0.09347 0.055,-0.148446 0.0605,-0.05498 0.15394,-0.05498 h 0.19793 q 0.099,0 0.14845,0.05498 0.055,0.05498 0.055,0.148446 v 4.986686 q 0,0.197928 -0.20343,0.197928 h -0.19243 q -0.21442,0 -0.21442,-0.197928 z m -0.16494,-1.819838 q 0,-0.197928 0.13745,-0.335378 0.14295,-0.142948 0.34087,-0.142948 0.19793,0 0.33538,0.142948 0.14295,0.13745 0.14295,0.335378 0,0.197928 -0.14295,0.340876 -0.13745,0.13745 -0.33538,0.13745 -0.19792,0 -0.34087,-0.13745 -0.13745,-0.142948 -0.13745,-0.340876 z"
         style="font-style:normal;font-variant:normal;font-weight:normal;font-stretch:normal;font-family:COCOMAT;-inkscape-font-specification:COCOMAT;stroke-width:0.274901"
         id="path884" />
      <path
         d="m 233.22542,76.579501 q 0.0935,0 0.15945,0.05498 0.0715,0.04948 0.0715,0.159442 v 0.181434 q 0,0.126454 -0.077,0.170438 -0.0715,0.04398 -0.18144,0.04398 h -0.16494 q -0.28039,0 -0.52231,-0.03849 -0.24191,-0.03299 -0.41784,-0.16494 -0.17594,-0.131952 -0.2804,-0.390358 -0.099,-0.263904 -0.099,-0.71474 v -3.535214 h -0.75872 q -0.10996,0 -0.16494,-0.04398 -0.0495,-0.04398 -0.0495,-0.153944 v -0.203426 q 0,-0.10996 0.0495,-0.153944 0.055,-0.04398 0.16494,-0.04398 h 0.75872 v -1.62191 q 0,-0.16494 0.18144,-0.19243 l 0.2749,-0.03849 q 0.10996,0 0.14844,0.06598 0.0385,0.06598 0.0385,0.16494 v 1.62191 h 0.95115 q 0.099,0 0.15395,0.04948 0.0605,0.04948 0.0605,0.159442 v 0.181434 q 0,0.10996 -0.0605,0.159442 -0.055,0.04948 -0.15395,0.04948 h -0.95115 v 3.386768 q 0,0.291394 0.0385,0.456334 0.0385,0.159442 0.12095,0.241912 0.0825,0.08247 0.20343,0.10996 0.12645,0.02199 0.30239,0.03849 z"
         style="font-style:normal;font-variant:normal;font-weight:normal;font-stretch:normal;font-family:COCOMAT;-inkscape-font-specification:COCOMAT;stroke-width:0.274901"
         id="path886" />
      <path
         d="m 234.70437,69.184691 q 0,-0.203426 0.20343,-0.203426 h 0.17044 q 0.0825,0 0.12645,0.04948 0.0495,0.04398 0.0715,0.120956 0.0275,0.07697 0.033,0.181434 0.006,0.09896 0.006,0.203426 v 0.263904 2.809478 q 0.12645,-0.214422 0.30789,-0.390358 0.18693,-0.181434 0.41235,-0.307888 0.23091,-0.131952 0.48932,-0.203426 0.2639,-0.07147 0.5443,-0.07147 0.46733,0 0.86869,0.181434 0.40135,0.175936 0.69274,0.483824 0.2969,0.307888 0.46184,0.725736 0.16494,0.41235 0.16494,0.885178 v 3.018402 q 0,0.10996 -0.0605,0.16494 -0.055,0.04948 -0.14845,0.04948 h -0.19243 q -0.11546,0 -0.15944,-0.04948 -0.044,-0.04948 -0.044,-0.159442 v -3.040394 q -0.022,-0.340876 -0.14845,-0.643266 -0.12096,-0.30239 -0.33538,-0.527808 -0.21442,-0.225418 -0.51681,-0.351872 -0.29689,-0.131952 -0.67076,-0.131952 -0.33537,0 -0.63776,0.126454 -0.2969,0.120956 -0.52781,0.340876 -0.22542,0.214422 -0.36287,0.511314 -0.13195,0.291394 -0.13745,0.626772 v 3.100872 q 0,0.09896 -0.0605,0.148446 -0.055,0.04948 -0.14844,0.04948 h -0.19243 q -0.20893,0 -0.20893,-0.197928 z"
         style="font-style:normal;font-variant:normal;font-weight:normal;font-stretch:normal;font-family:COCOMAT;-inkscape-font-specification:COCOMAT;stroke-width:0.274901"
         id="path888" />
      <path
         d="m 241.42292,76.942369 q 0,0.197928 -0.20342,0.197928 h -0.22542 q -0.20893,0 -0.20893,-0.197928 v -5.036168 q 0,-0.07697 0.044,-0.126454 0.044,-0.04948 0.12645,-0.04948 h 0.32438 q 0.11546,0 0.12646,0.120956 l 0.0165,0.654262 q 0.12096,-0.170438 0.2694,-0.318884 0.15395,-0.153944 0.34088,-0.263904 0.18693,-0.10996 0.40135,-0.175936 0.21992,-0.06598 0.47283,-0.06598 0.31339,0 0.58829,0.08797 0.2749,0.08247 0.50032,0.236414 0.23091,0.148446 0.40685,0.35737 0.17593,0.203426 0.29139,0.450836 0.11546,-0.252908 0.2859,-0.461832 0.17044,-0.214422 0.38486,-0.362868 0.21992,-0.153944 0.48382,-0.236414 0.26391,-0.08247 0.5663,-0.08247 0.39035,0 0.72573,0.13745 0.34088,0.13745 0.59928,0.379362 0.26391,0.236414 0.42885,0.560796 0.16494,0.324382 0.20892,0.703744 0.033,0.291394 0.033,0.57729 v 2.891948 q 0,0.10996 -0.0605,0.16494 -0.0605,0.05498 -0.15944,0.05498 h -0.19793 q -0.22542,0 -0.22542,-0.214422 v -3.18884 q -0.005,-0.296892 -0.10996,-0.560796 -0.099,-0.263904 -0.28039,-0.456334 -0.18144,-0.19243 -0.43435,-0.30239 -0.2529,-0.115458 -0.5498,-0.115458 -0.2584,0 -0.49482,0.08797 -0.23641,0.08797 -0.42884,0.241912 -0.18693,0.153944 -0.31888,0.368366 -0.12646,0.214422 -0.17594,0.461832 -0.0275,0.131952 -0.044,0.269402 -0.0165,0.13745 -0.0165,0.280398 v 2.908442 q 0,0.21992 -0.20892,0.21992 h -0.21992 q -0.20893,0 -0.20893,-0.214422 v -3.205334 q -0.005,-0.296892 -0.12095,-0.555298 -0.10996,-0.258406 -0.30239,-0.450836 -0.18693,-0.19243 -0.43984,-0.30239 -0.25291,-0.10996 -0.5498,-0.10996 -0.29689,0 -0.5608,0.115458 -0.2639,0.10996 -0.46183,0.307888 -0.19243,0.197928 -0.30789,0.461832 -0.10996,0.263904 -0.10996,0.566294 z"
         style="font-style:normal;font-variant:normal;font-weight:normal;font-stretch:normal;font-family:COCOMAT;-inkscape-font-specification:COCOMAT;stroke-width:0.274901"
         id="path890" />
      <path
         d="m 252.64982,72.851857 q -0.17593,-0.285896 -0.47282,-0.46733 -0.2969,-0.181434 -0.67626,-0.181434 -0.23641,0 -0.43434,0.06598 -0.19793,0.06598 -0.34088,0.186932 -0.14294,0.120956 -0.22541,0.291394 -0.077,0.16494 -0.077,0.368366 0,0.197928 0.099,0.351872 0.10446,0.148446 0.2584,0.258406 0.15395,0.104462 0.33538,0.175936 0.18693,0.07147 0.35187,0.115458 l 0.16494,0.04398 q 0.40136,0.10996 0.72024,0.269402 0.32438,0.159442 0.5498,0.368366 0.22542,0.203426 0.34638,0.456334 0.12095,0.252908 0.12095,0.544302 0,0.373864 -0.15394,0.665258 -0.15395,0.291394 -0.41785,0.489322 -0.25841,0.197928 -0.60478,0.296892 -0.34088,0.104462 -0.72024,0.104462 -0.31338,0 -0.60478,-0.07147 -0.28589,-0.07147 -0.5333,-0.208924 -0.24192,-0.142948 -0.42335,-0.351872 -0.17594,-0.214422 -0.2639,-0.489322 -0.0165,-0.03849 -0.0165,-0.07147 0,-0.04398 0.033,-0.09347 0.0385,-0.05498 0.099,-0.08247 l 0.20893,-0.09347 q 0.0495,-0.01649 0.0825,-0.01649 0.055,0 0.0935,0.03299 0.0385,0.03299 0.066,0.08247 l 0.0275,0.05498 q 0.088,0.175936 0.23092,0.313386 0.14844,0.13745 0.31888,0.230916 0.17594,0.09347 0.35187,0.142948 0.18144,0.04398 0.32988,0.04398 0.19793,0 0.42335,-0.05498 0.22542,-0.06048 0.41785,-0.175936 0.19243,-0.120956 0.31888,-0.30239 0.12645,-0.181434 0.12645,-0.434342 0,-0.236414 -0.12645,-0.41235 -0.12645,-0.181434 -0.32438,-0.307888 -0.19793,-0.131952 -0.43984,-0.21992 -0.24191,-0.08797 -0.47283,-0.142948 -0.2859,-0.08247 -0.57179,-0.21992 -0.2804,-0.13745 -0.50582,-0.324382 -0.21992,-0.19243 -0.35737,-0.434342 -0.13745,-0.241912 -0.13745,-0.527808 0,-0.335378 0.12096,-0.610278 0.12095,-0.2749 0.33538,-0.472828 0.21992,-0.197928 0.5278,-0.30239 0.31339,-0.10996 0.69275,-0.10996 0.5498,0 0.98964,0.236414 0.44534,0.236414 0.73124,0.736732 0.0275,0.06598 0.0275,0.10996 0,0.03849 -0.022,0.08247 -0.022,0.03849 -0.066,0.06598 l -0.19243,0.115458 q -0.077,0.04948 -0.13195,0.04948 -0.0605,0 -0.088,-0.03299 -0.0275,-0.03299 -0.0715,-0.09347 l -0.033,-0.04398 z"
         style="font-style:normal;font-variant:normal;font-weight:normal;font-stretch:normal;font-family:COCOMAT;-inkscape-font-specification:COCOMAT;stroke-width:0.274901"
         id="path892" />
      <path
         d="m 143.54776,86.640424 q 0,0.09347 -0.0605,0.148446 -0.0605,0.04948 -0.16494,0.04948 h -0.17594 q -0.21992,0 -0.21992,-0.21992 V 85.66178 q -0.099,0.307888 -0.29139,0.5498 -0.19243,0.236414 -0.45633,0.401354 -0.25841,0.16494 -0.57729,0.252908 -0.31889,0.08797 -0.67626,0.08797 -0.56079,0 -1.04462,-0.21992 -0.48382,-0.21992 -0.84119,-0.599282 -0.35187,-0.379362 -0.5553,-0.890676 -0.20343,-0.511314 -0.20343,-1.094102 0,-0.582788 0.19793,-1.094102 0.20343,-0.516812 0.5553,-0.901672 0.35737,-0.38486 0.84119,-0.60478 0.48383,-0.21992 1.05012,-0.21992 0.36287,0 0.68725,0.09347 0.32988,0.09347 0.59379,0.263904 0.2639,0.170438 0.45083,0.406852 0.18693,0.230916 0.2694,0.511314 l 0.022,-0.940158 q 0.005,-0.10996 0.055,-0.16494 0.0495,-0.06048 0.15944,-0.06048 h 0.15944 q 0.099,0 0.15944,0.06048 0.066,0.05498 0.066,0.16494 z m -0.62677,-2.485096 q 0,-0.450836 -0.14845,-0.85219 -0.14295,-0.401354 -0.40685,-0.703744 -0.26391,-0.30239 -0.63227,-0.478326 -0.36837,-0.175936 -0.80821,-0.175936 -0.44534,0 -0.8192,0.175936 -0.36837,0.175936 -0.63777,0.478326 -0.2639,0.296892 -0.41785,0.698246 -0.14844,0.401354 -0.14844,0.85219 0,0.450836 0.14844,0.85219 0.15395,0.395856 0.42335,0.692748 0.2694,0.296892 0.63777,0.472828 0.37386,0.170438 0.8137,0.170438 0.43434,0 0.80271,-0.170438 0.36837,-0.170438 0.63227,-0.461832 0.2639,-0.296892 0.41235,-0.692748 0.14845,-0.401354 0.14845,-0.857688 z"
         style="font-style:normal;font-variant:normal;font-weight:normal;font-stretch:normal;font-family:COCOMAT;-inkscape-font-specification:COCOMAT;stroke-width:0.274901"
         id="path894" />
      <path
         d="m 145.81293,86.629428 q 0,0.197928 -0.20342,0.197928 h -0.22542 q -0.20893,0 -0.20893,-0.197928 V 81.59326 q 0,-0.07697 0.044,-0.126454 0.044,-0.04948 0.12645,-0.04948 h 0.32438 q 0.0495,0 0.0825,0.03299 0.0385,0.03299 0.044,0.08797 l 0.0165,0.747728 q 0.13745,-0.203426 0.32439,-0.379362 0.18693,-0.175936 0.41235,-0.30239 0.22541,-0.131952 0.47832,-0.203426 0.25841,-0.07697 0.53881,-0.07697 0.47282,0 0.87418,0.175936 0.40685,0.175936 0.70374,0.483824 0.29689,0.307888 0.46733,0.725736 0.17044,0.41235 0.17044,0.885178 v 3.012904 q 0,0.10996 -0.0605,0.16494 -0.055,0.05498 -0.15394,0.05498 h -0.22542 q -0.10996,0 -0.15394,-0.04948 -0.044,-0.05498 -0.044,-0.16494 v -3.029398 q -0.006,-0.340876 -0.13745,-0.637768 -0.13195,-0.296892 -0.35737,-0.516812 -0.21992,-0.21992 -0.51681,-0.346374 -0.29689,-0.126454 -0.63227,-0.126454 -0.32988,0 -0.63227,0.120956 -0.29689,0.120956 -0.52781,0.335378 -0.23091,0.208924 -0.37386,0.500318 -0.13745,0.285896 -0.15395,0.621274 z"
         style="font-style:normal;font-variant:normal;font-weight:normal;font-stretch:normal;font-family:COCOMAT;-inkscape-font-specification:COCOMAT;stroke-width:0.274901"
         id="path896" />
      <path
         d="m 156.07769,86.59644 q 0,0.225418 -0.23091,0.225418 h -0.16494 q -0.24191,0 -0.24191,-0.225418 v -0.68725 q -0.0715,0.126454 -0.21443,0.30239 -0.13745,0.175936 -0.37936,0.340876 -0.23641,0.16494 -0.58279,0.280398 -0.34637,0.115458 -0.83019,0.115458 -0.53881,0 -1.01164,-0.21992 -0.46733,-0.21992 -0.8192,-0.599282 -0.35187,-0.379362 -0.5553,-0.890676 -0.19792,-0.511314 -0.19792,-1.0996 0,-0.582788 0.19792,-1.094102 0.20343,-0.511314 0.5553,-0.890676 0.35187,-0.38486 0.8192,-0.60478 0.47283,-0.21992 1.01164,-0.21992 0.37936,0 0.69274,0.09896 0.31889,0.09896 0.5663,0.2749 0.24741,0.170438 0.43434,0.401354 0.18693,0.230916 0.31339,0.49482 v -3.716648 q 0,-0.09896 0.0605,-0.153944 0.0605,-0.06048 0.17594,-0.06048 h 0.15944 q 0.11546,0 0.17594,0.06048 0.066,0.05498 0.066,0.153944 z m -0.59928,-2.452108 q 0,-0.450836 -0.15944,-0.85219 -0.15944,-0.401354 -0.43434,-0.698246 -0.2749,-0.30239 -0.63777,-0.472828 -0.36287,-0.175936 -0.76972,-0.175936 -0.40685,0 -0.76972,0.175936 -0.36287,0.170438 -0.63777,0.472828 -0.2694,0.296892 -0.42884,0.698246 -0.15395,0.401354 -0.15395,0.85219 0,0.450836 0.15395,0.85219 0.15944,0.401354 0.42884,0.703744 0.2749,0.296892 0.63777,0.472828 0.36287,0.170438 0.76972,0.170438 0.40685,0 0.76972,-0.170438 0.36287,-0.175936 0.63777,-0.472828 0.2749,-0.30239 0.43434,-0.703744 0.15944,-0.401354 0.15944,-0.85219 z"
         style="font-style:normal;font-variant:normal;font-weight:normal;font-stretch:normal;font-family:COCOMAT;-inkscape-font-specification:COCOMAT;stroke-width:0.274901"
         id="path898" />
      <path
         d="m 166.27646,86.59644 q 0,0.225418 -0.23092,0.225418 h -0.16494 q -0.24191,0 -0.24191,-0.225418 v -0.68725 q -0.0715,0.126454 -0.21442,0.30239 -0.13745,0.175936 -0.37936,0.340876 -0.23642,0.16494 -0.58279,0.280398 -0.34637,0.115458 -0.8302,0.115458 -0.5388,0 -1.01163,-0.21992 -0.46733,-0.21992 -0.8192,-0.599282 -0.35187,-0.379362 -0.5553,-0.890676 -0.19793,-0.511314 -0.19793,-1.0996 0,-0.582788 0.19793,-1.094102 0.20343,-0.511314 0.5553,-0.890676 0.35187,-0.38486 0.8192,-0.60478 0.47283,-0.21992 1.01163,-0.21992 0.37936,0 0.69275,0.09896 0.31888,0.09896 0.56629,0.2749 0.24741,0.170438 0.43435,0.401354 0.18693,0.230916 0.31338,0.49482 v -3.716648 q 0,-0.09896 0.0605,-0.153944 0.0605,-0.06048 0.17594,-0.06048 h 0.15944 q 0.11546,0 0.17593,0.06048 0.066,0.05498 0.066,0.153944 z m -0.59928,-2.452108 q 0,-0.450836 -0.15944,-0.85219 -0.15945,-0.401354 -0.43435,-0.698246 -0.2749,-0.30239 -0.63776,-0.472828 -0.36287,-0.175936 -0.76972,-0.175936 -0.40686,0 -0.76972,0.175936 -0.36287,0.170438 -0.63777,0.472828 -0.2694,0.296892 -0.42885,0.698246 -0.15394,0.401354 -0.15394,0.85219 0,0.450836 0.15394,0.85219 0.15945,0.401354 0.42885,0.703744 0.2749,0.296892 0.63777,0.472828 0.36286,0.170438 0.76972,0.170438 0.40685,0 0.76972,-0.170438 0.36286,-0.175936 0.63776,-0.472828 0.2749,-0.30239 0.43435,-0.703744 0.15944,-0.401354 0.15944,-0.85219 z"
         style="font-style:normal;font-variant:normal;font-weight:normal;font-stretch:normal;font-family:COCOMAT;-inkscape-font-specification:COCOMAT;stroke-width:0.274901"
         id="path900" />
      <path
         d="m 173.07197,86.640424 q 0,0.09347 -0.0605,0.148446 -0.0605,0.04948 -0.16494,0.04948 h -0.17593 q -0.21992,0 -0.21992,-0.21992 V 85.66178 q -0.099,0.307888 -0.2914,0.5498 -0.19243,0.236414 -0.45633,0.401354 -0.25841,0.16494 -0.57729,0.252908 -0.31888,0.08797 -0.67625,0.08797 -0.5608,0 -1.04462,-0.21992 -0.48383,-0.21992 -0.8412,-0.599282 -0.35187,-0.379362 -0.5553,-0.890676 -0.20342,-0.511314 -0.20342,-1.094102 0,-0.582788 0.19793,-1.094102 0.20342,-0.516812 0.55529,-0.901672 0.35737,-0.38486 0.8412,-0.60478 0.48382,-0.21992 1.05012,-0.21992 0.36286,0 0.68725,0.09347 0.32988,0.09347 0.59378,0.263904 0.2639,0.170438 0.45084,0.406852 0.18693,0.230916 0.2694,0.511314 l 0.022,-0.940158 q 0.006,-0.10996 0.055,-0.16494 0.0495,-0.06048 0.15944,-0.06048 h 0.15944 q 0.099,0 0.15945,0.06048 0.066,0.05498 0.066,0.16494 z m -0.62677,-2.485096 q 0,-0.450836 -0.14845,-0.85219 -0.14294,-0.401354 -0.40685,-0.703744 -0.2639,-0.30239 -0.63227,-0.478326 -0.36836,-0.175936 -0.8082,-0.175936 -0.44534,0 -0.81921,0.175936 -0.36836,0.175936 -0.63776,0.478326 -0.26391,0.296892 -0.41785,0.698246 -0.14845,0.401354 -0.14845,0.85219 0,0.450836 0.14845,0.85219 0.15394,0.395856 0.42334,0.692748 0.26941,0.296892 0.63777,0.472828 0.37387,0.170438 0.81371,0.170438 0.43434,0 0.8027,-0.170438 0.36837,-0.170438 0.63227,-0.461832 0.26391,-0.296892 0.41235,-0.692748 0.14845,-0.401354 0.14845,-0.857688 z"
         style="font-style:normal;font-variant:normal;font-weight:normal;font-stretch:normal;font-family:COCOMAT;-inkscape-font-specification:COCOMAT;stroke-width:0.274901"
         id="path902" />
      <path
         d="m 176.64567,86.26656 q 0.0935,0 0.15944,0.05498 0.0715,0.04948 0.0715,0.159442 v 0.181434 q 0,0.126454 -0.077,0.170438 -0.0715,0.04398 -0.18143,0.04398 h -0.16494 q -0.2804,0 -0.52231,-0.03849 -0.24191,-0.03299 -0.41785,-0.16494 -0.17593,-0.131952 -0.2804,-0.390358 -0.099,-0.263904 -0.099,-0.71474 V 82.0331 H 174.375 q -0.10996,0 -0.16494,-0.04398 -0.0495,-0.04398 -0.0495,-0.153944 v -0.203426 q 0,-0.10996 0.0495,-0.153944 0.055,-0.04398 0.16494,-0.04398 h 0.75872 v -1.62191 q 0,-0.16494 0.18143,-0.19243 l 0.2749,-0.03849 q 0.10996,0 0.14845,0.06598 0.0385,0.06598 0.0385,0.16494 v 1.62191 h 0.95115 q 0.099,0 0.15394,0.04948 0.0605,0.04948 0.0605,0.159442 v 0.181434 q 0,0.10996 -0.0605,0.159442 -0.055,0.04948 -0.15394,0.04948 h -0.95115 v 3.386768 q 0,0.291394 0.0385,0.456334 0.0385,0.159442 0.12096,0.241912 0.0825,0.08247 0.20342,0.10996 0.12646,0.02199 0.30239,0.03849 z"
         style="font-style:normal;font-variant:normal;font-weight:normal;font-stretch:normal;font-family:COCOMAT;-inkscape-font-specification:COCOMAT;stroke-width:0.274901"
         id="path904" />
      <path
         d="m 183.02883,86.640424 q 0,0.09347 -0.0605,0.148446 -0.0605,0.04948 -0.16494,0.04948 h -0.17594 q -0.21992,0 -0.21992,-0.21992 V 85.66178 q -0.099,0.307888 -0.29139,0.5498 -0.19243,0.236414 -0.45634,0.401354 -0.2584,0.16494 -0.57729,0.252908 -0.31888,0.08797 -0.67625,0.08797 -0.5608,0 -1.04462,-0.21992 -0.48383,-0.21992 -0.8412,-0.599282 -0.35187,-0.379362 -0.55529,-0.890676 -0.20343,-0.511314 -0.20343,-1.094102 0,-0.582788 0.19793,-1.094102 0.20342,-0.516812 0.5553,-0.901672 0.35737,-0.38486 0.84119,-0.60478 0.48382,-0.21992 1.05012,-0.21992 0.36287,0 0.68725,0.09347 0.32988,0.09347 0.59378,0.263904 0.26391,0.170438 0.45084,0.406852 0.18693,0.230916 0.2694,0.511314 l 0.022,-0.940158 q 0.005,-0.10996 0.055,-0.16494 0.0495,-0.06048 0.15944,-0.06048 h 0.15945 q 0.099,0 0.15944,0.06048 0.066,0.05498 0.066,0.16494 z m -0.62677,-2.485096 q 0,-0.450836 -0.14844,-0.85219 -0.14295,-0.401354 -0.40686,-0.703744 -0.2639,-0.30239 -0.63227,-0.478326 -0.36836,-0.175936 -0.8082,-0.175936 -0.44534,0 -0.8192,0.175936 -0.36837,0.175936 -0.63777,0.478326 -0.26391,0.296892 -0.41785,0.698246 -0.14845,0.401354 -0.14845,0.85219 0,0.450836 0.14845,0.85219 0.15394,0.395856 0.42335,0.692748 0.2694,0.296892 0.63776,0.472828 0.37387,0.170438 0.81371,0.170438 0.43434,0 0.80271,-0.170438 0.36836,-0.170438 0.63227,-0.461832 0.2639,-0.296892 0.41235,-0.692748 0.14844,-0.401354 0.14844,-0.857688 z"
         style="font-style:normal;font-variant:normal;font-weight:normal;font-stretch:normal;font-family:COCOMAT;-inkscape-font-specification:COCOMAT;stroke-width:0.274901"
         id="path906" />
      <path
         d="m 190.70953,82.538916 q -0.17593,-0.285896 -0.47283,-0.46733 -0.29689,-0.181434 -0.67625,-0.181434 -0.23641,0 -0.43434,0.06598 -0.19793,0.06598 -0.34088,0.186932 -0.14295,0.120956 -0.22542,0.291394 -0.077,0.16494 -0.077,0.368366 0,0.197928 0.099,0.351872 0.10446,0.148446 0.2584,0.258406 0.15395,0.104462 0.33538,0.175936 0.18693,0.07147 0.35187,0.115458 l 0.16494,0.04398 q 0.40136,0.10996 0.72024,0.269402 0.32438,0.159442 0.5498,0.368366 0.22542,0.203426 0.34637,0.456334 0.12096,0.252908 0.12096,0.544302 0,0.373864 -0.15394,0.665258 -0.15395,0.291394 -0.41785,0.489322 -0.25841,0.197928 -0.60478,0.296892 -0.34088,0.104462 -0.72024,0.104462 -0.31339,0 -0.60478,-0.07147 -0.2859,-0.07147 -0.53331,-0.208924 -0.24191,-0.142948 -0.42334,-0.351872 -0.17594,-0.214422 -0.26391,-0.489322 -0.0165,-0.03849 -0.0165,-0.07147 0,-0.04398 0.033,-0.09347 0.0385,-0.05498 0.099,-0.08247 l 0.20893,-0.09347 q 0.0495,-0.01649 0.0825,-0.01649 0.055,0 0.0935,0.03299 0.0385,0.03299 0.066,0.08247 l 0.0275,0.05498 q 0.088,0.175936 0.23091,0.313386 0.14845,0.13745 0.31889,0.230916 0.17593,0.09347 0.35187,0.142948 0.18143,0.04398 0.32988,0.04398 0.19793,0 0.42335,-0.05498 0.22541,-0.06048 0.41784,-0.175936 0.19243,-0.120956 0.31889,-0.30239 0.12645,-0.181434 0.12645,-0.434342 0,-0.236414 -0.12645,-0.41235 -0.12646,-0.181434 -0.32438,-0.307888 -0.19793,-0.131952 -0.43984,-0.21992 -0.24192,-0.08797 -0.47283,-0.142948 -0.2859,-0.08247 -0.57179,-0.21992 -0.2804,-0.13745 -0.50582,-0.324382 -0.21992,-0.19243 -0.35737,-0.434342 -0.13745,-0.241912 -0.13745,-0.527808 0,-0.335378 0.12096,-0.610278 0.12095,-0.2749 0.33537,-0.472828 0.21992,-0.197928 0.52781,-0.30239 0.31339,-0.10996 0.69275,-0.10996 0.5498,0 0.98964,0.236414 0.44534,0.236414 0.73123,0.736732 0.0275,0.06598 0.0275,0.10996 0,0.03849 -0.022,0.08247 -0.022,0.03849 -0.066,0.06598 l -0.19243,0.115458 q -0.077,0.04948 -0.13196,0.04948 -0.0605,0 -0.088,-0.03299 -0.0275,-0.03299 -0.0715,-0.09347 l -0.033,-0.04398 z"
         style="font-style:normal;font-variant:normal;font-weight:normal;font-stretch:normal;font-family:COCOMAT;-inkscape-font-specification:COCOMAT;stroke-width:0.274901"
         id="path908" />
      <path
         d="m 194.71207,86.26656 q 0.0935,0 0.15944,0.05498 0.0715,0.04948 0.0715,0.159442 v 0.181434 q 0,0.126454 -0.077,0.170438 -0.0715,0.04398 -0.18144,0.04398 h -0.16494 q -0.2804,0 -0.52231,-0.03849 -0.24191,-0.03299 -0.41785,-0.16494 -0.17593,-0.131952 -0.28039,-0.390358 -0.099,-0.263904 -0.099,-0.71474 V 82.0331 h -0.75872 q -0.10996,0 -0.16494,-0.04398 -0.0495,-0.04398 -0.0495,-0.153944 v -0.203426 q 0,-0.10996 0.0495,-0.153944 0.055,-0.04398 0.16494,-0.04398 h 0.75872 v -1.62191 q 0,-0.16494 0.18144,-0.19243 l 0.2749,-0.03849 q 0.10996,0 0.14844,0.06598 0.0385,0.06598 0.0385,0.16494 v 1.62191 h 0.95115 q 0.099,0 0.15395,0.04948 0.0605,0.04948 0.0605,0.159442 v 0.181434 q 0,0.10996 -0.0605,0.159442 -0.055,0.04948 -0.15395,0.04948 h -0.95115 v 3.386768 q 0,0.291394 0.0385,0.456334 0.0385,0.159442 0.12096,0.241912 0.0825,0.08247 0.20343,0.10996 0.12645,0.02199 0.30239,0.03849 z"
         style="font-style:normal;font-variant:normal;font-weight:normal;font-stretch:normal;font-family:COCOMAT;-inkscape-font-specification:COCOMAT;stroke-width:0.274901"
         id="path910" />
      <path
         d="m 196.19102,81.686726 q 0,-0.252908 0.24191,-0.252908 h 0.12096 q 0.2694,0 0.2694,0.252908 v 0.21992 0.351872 q 0.077,-0.197928 0.21442,-0.362868 0.14295,-0.170438 0.32438,-0.285896 0.18694,-0.120956 0.41235,-0.186932 0.23092,-0.06598 0.48933,-0.06598 0.16494,0 0.36836,0.04398 0.20343,0.04398 0.37936,0.115458 0.18144,0.07147 0.30239,0.16494 0.12096,0.08797 0.12096,0.181434 0,0.05498 -0.033,0.126454 -0.033,0.07147 -0.0825,0.13745 -0.044,0.06598 -0.0935,0.10996 -0.0495,0.04398 -0.0825,0.04398 -0.044,0 -0.0715,0 -0.022,-0.0055 -0.055,-0.02749 -0.15944,-0.09896 -0.36836,-0.181434 -0.20893,-0.08247 -0.42335,-0.08247 -0.30789,0 -0.56629,0.142948 -0.25291,0.13745 -0.43984,0.373864 -0.18144,0.230916 -0.2914,0.533306 -0.10446,0.296892 -0.10446,0.615776 l 0.006,2.974418 q 0,0.197928 -0.20343,0.197928 h -0.0495 -0.17594 q -0.20892,0 -0.20892,-0.197928 v -0.05498 z"
         style="font-style:normal;font-variant:normal;font-weight:normal;font-stretch:normal;font-family:COCOMAT;-inkscape-font-specification:COCOMAT;stroke-width:0.274901"
         id="path912" />
      <path
         d="m 204.97131,86.62393 q 0,0.09347 -0.0605,0.148446 -0.055,0.05498 -0.14845,0.05498 h -0.17044 q -0.099,0 -0.14844,-0.05498 -0.0495,-0.05498 -0.055,-0.148446 -0.011,-0.159442 -0.0165,-0.318884 -0.005,-0.159442 -0.011,-0.318884 -0.13196,0.214422 -0.31889,0.390358 -0.18143,0.175936 -0.41235,0.307888 -0.22542,0.126454 -0.48382,0.197928 -0.25841,0.07147 -0.53881,0.07147 -0.47282,0 -0.87418,-0.175936 -0.40135,-0.175936 -0.69275,-0.478326 -0.29139,-0.307888 -0.46183,-0.720238 -0.16494,-0.417848 -0.16494,-0.890676 v -3.029398 q 0,-0.104462 0.0605,-0.159442 0.0605,-0.06048 0.15394,-0.06048 h 0.19243 q 0.11546,0 0.15945,0.05498 0.044,0.05498 0.044,0.159442 v 3.056888 q 0.005,0.346374 0.12645,0.648764 0.12646,0.296892 0.34638,0.52231 0.21992,0.21992 0.52231,0.346374 0.30789,0.126454 0.67075,0.126454 0.34088,0 0.64327,-0.126454 0.30789,-0.126454 0.53331,-0.346374 0.23091,-0.225418 0.36286,-0.52231 0.13196,-0.296892 0.13196,-0.643266 v -3.073382 q 0,-0.203426 0.20342,-0.203426 h 0.19243 q 0.21442,0 0.21442,0.203426 z"
         style="font-style:normal;font-variant:normal;font-weight:normal;font-stretch:normal;font-family:COCOMAT;-inkscape-font-specification:COCOMAT;stroke-width:0.274901"
         id="path914" />
      <path
         d="m 210.57376,85.656282 q 0.088,-0.07697 0.15944,-0.07697 0.033,0 0.0715,0.01649 0.0385,0.01649 0.0715,0.06048 l 0.14295,0.186932 q 0.044,0.06048 0.044,0.104462 0.005,0.04398 -0.033,0.09347 -0.0385,0.04398 -0.11545,0.120956 -0.38486,0.362868 -0.85769,0.57729 -0.46733,0.208924 -1.03363,0.208924 -0.58828,0 -1.0831,-0.21992 -0.49482,-0.21992 -0.85769,-0.60478 -0.36287,-0.38486 -0.56629,-0.896174 -0.20343,-0.511314 -0.20343,-1.0996 0,-0.582788 0.20343,-1.094102 0.20342,-0.516812 0.56629,-0.896174 0.36287,-0.38486 0.85769,-0.60478 0.49482,-0.21992 1.0831,-0.21992 0.53331,0 0.98964,0.186932 0.45634,0.181434 0.8302,0.511314 0.0605,0.04398 0.11546,0.10996 0.055,0.06048 0.055,0.126454 0,0.06598 -0.0495,0.120956 l -0.11546,0.148446 q -0.0495,0.06048 -0.088,0.09347 -0.033,0.02749 -0.077,0.02749 -0.0715,0 -0.15394,-0.08247 -0.2969,-0.291394 -0.67626,-0.456334 -0.37386,-0.170438 -0.8192,-0.170438 -0.45633,0 -0.84119,0.175936 -0.37937,0.170438 -0.65976,0.472828 -0.2749,0.296892 -0.43435,0.698246 -0.15394,0.401354 -0.15394,0.85219 0,0.456334 0.15394,0.857688 0.15945,0.395856 0.43435,0.698246 0.28039,0.30239 0.65976,0.478326 0.38486,0.170438 0.84119,0.170438 0.21992,0 0.42884,-0.04948 0.21443,-0.05498 0.41235,-0.148446 0.19793,-0.09347 0.37387,-0.214422 0.17593,-0.120956 0.32438,-0.263904 z"
         style="font-style:normal;font-variant:normal;font-weight:normal;font-stretch:normal;font-family:COCOMAT;-inkscape-font-specification:COCOMAT;stroke-width:0.274901"
         id="path916" />
      <path
         d="m 214.24092,86.26656 q 0.0935,0 0.15944,0.05498 0.0715,0.04948 0.0715,0.159442 v 0.181434 q 0,0.126454 -0.077,0.170438 -0.0715,0.04398 -0.18143,0.04398 h -0.16494 q -0.2804,0 -0.52231,-0.03849 -0.24191,-0.03299 -0.41785,-0.16494 -0.17593,-0.131952 -0.2804,-0.390358 -0.099,-0.263904 -0.099,-0.71474 V 82.0331 h -0.75873 q -0.10996,0 -0.16494,-0.04398 -0.0495,-0.04398 -0.0495,-0.153944 v -0.203426 q 0,-0.10996 0.0495,-0.153944 0.055,-0.04398 0.16494,-0.04398 h 0.75873 v -1.62191 q 0,-0.16494 0.18143,-0.19243 l 0.2749,-0.03849 q 0.10996,0 0.14845,0.06598 0.0385,0.06598 0.0385,0.16494 v 1.62191 h 0.95115 q 0.099,0 0.15394,0.04948 0.0605,0.04948 0.0605,0.159442 v 0.181434 q 0,0.10996 -0.0605,0.159442 -0.055,0.04948 -0.15394,0.04948 h -0.95115 v 3.386768 q 0,0.291394 0.0385,0.456334 0.0385,0.159442 0.12096,0.241912 0.0825,0.08247 0.20342,0.10996 0.12646,0.02199 0.30239,0.03849 z"
         style="font-style:normal;font-variant:normal;font-weight:normal;font-stretch:normal;font-family:COCOMAT;-inkscape-font-specification:COCOMAT;stroke-width:0.274901"
         id="path918" />
      <path
         d="m 220.08528,86.62393 q 0,0.09347 -0.0605,0.148446 -0.055,0.05498 -0.14845,0.05498 h -0.17043 q -0.099,0 -0.14845,-0.05498 -0.0495,-0.05498 -0.055,-0.148446 -0.011,-0.159442 -0.0165,-0.318884 -0.005,-0.159442 -0.011,-0.318884 -0.13195,0.214422 -0.31888,0.390358 -0.18144,0.175936 -0.41235,0.307888 -0.22542,0.126454 -0.48383,0.197928 -0.2584,0.07147 -0.5388,0.07147 -0.47283,0 -0.87418,-0.175936 -0.40136,-0.175936 -0.69275,-0.478326 -0.2914,-0.307888 -0.46183,-0.720238 -0.16494,-0.417848 -0.16494,-0.890676 v -3.029398 q 0,-0.104462 0.0605,-0.159442 0.0605,-0.06048 0.15395,-0.06048 h 0.19243 q 0.11546,0 0.15944,0.05498 0.044,0.05498 0.044,0.159442 v 3.056888 q 0.006,0.346374 0.12646,0.648764 0.12645,0.296892 0.34637,0.52231 0.21992,0.21992 0.52231,0.346374 0.30789,0.126454 0.67076,0.126454 0.34087,0 0.64326,-0.126454 0.30789,-0.126454 0.53331,-0.346374 0.23092,-0.225418 0.36287,-0.52231 0.13195,-0.296892 0.13195,-0.643266 v -3.073382 q 0,-0.203426 0.20343,-0.203426 h 0.19243 q 0.21442,0 0.21442,0.203426 z"
         style="font-style:normal;font-variant:normal;font-weight:normal;font-stretch:normal;font-family:COCOMAT;-inkscape-font-specification:COCOMAT;stroke-width:0.274901"
         id="path920" />
      <path
         d="m 221.82263,81.686726 q 0,-0.252908 0.24191,-0.252908 h 0.12095 q 0.26941,0 0.26941,0.252908 v 0.21992 0.351872 q 0.077,-0.197928 0.21442,-0.362868 0.14295,-0.170438 0.32438,-0.285896 0.18693,-0.120956 0.41235,-0.186932 0.23092,-0.06598 0.48932,-0.06598 0.16494,0 0.36837,0.04398 0.20342,0.04398 0.37936,0.115458 0.18143,0.07147 0.30239,0.16494 0.12096,0.08797 0.12096,0.181434 0,0.05498 -0.033,0.126454 -0.033,0.07147 -0.0825,0.13745 -0.044,0.06598 -0.0935,0.10996 -0.0495,0.04398 -0.0825,0.04398 -0.044,0 -0.0715,0 -0.022,-0.0055 -0.055,-0.02749 -0.15944,-0.09896 -0.36837,-0.181434 -0.20892,-0.08247 -0.42334,-0.08247 -0.30789,0 -0.5663,0.142948 -0.25291,0.13745 -0.43984,0.373864 -0.18143,0.230916 -0.29139,0.533306 -0.10446,0.296892 -0.10446,0.615776 l 0.005,2.974418 q 0,0.197928 -0.20342,0.197928 h -0.0495 -0.17594 q -0.20892,0 -0.20892,-0.197928 v -0.05498 z"
         style="font-style:normal;font-variant:normal;font-weight:normal;font-stretch:normal;font-family:COCOMAT;-inkscape-font-specification:COCOMAT;stroke-width:0.274901"
         id="path922" />
      <path
         d="m 228.47519,86.34903 q 0.36286,0 0.69824,-0.104462 0.33538,-0.10996 0.61578,-0.318884 0.0715,-0.05498 0.15944,-0.120956 0.088,-0.06598 0.14845,-0.07697 0.044,0 0.0935,0.04398 0.0495,0.04398 0.0935,0.10996 0.044,0.06048 0.0715,0.13745 0.033,0.07697 0.033,0.142948 -0.0495,0.08247 -0.13195,0.153944 -0.077,0.07147 -0.15395,0.126454 -0.34637,0.236414 -0.74772,0.373864 -0.40136,0.131952 -0.86869,0.131952 -0.58279,0 -1.0996,-0.21992 -0.51131,-0.21992 -0.89617,-0.599282 -0.37936,-0.379362 -0.59928,-0.890676 -0.21992,-0.511314 -0.21992,-1.094102 0,-0.582788 0.21442,-1.094102 0.21442,-0.516812 0.58279,-0.896174 0.36836,-0.38486 0.85768,-0.60478 0.49482,-0.21992 1.05562,-0.21992 0.5388,0 1.01163,0.208924 0.47833,0.208924 0.8357,0.57729 0.35737,0.368366 0.56629,0.874182 0.20893,0.500318 0.20893,1.083106 0,0.175936 -0.10447,0.230916 -0.10446,0.04948 -0.2639,0.04948 h -4.34342 q 0.033,0.423346 0.21442,0.791712 0.18693,0.362868 0.47833,0.63227 0.29689,0.263904 0.67625,0.417848 0.38486,0.153944 0.81371,0.153944 z m 1.9243,-2.540076 q -0.044,-0.390358 -0.21992,-0.731234 -0.17044,-0.346374 -0.44534,-0.599282 -0.2694,-0.252908 -0.62128,-0.395856 -0.34637,-0.148446 -0.73673,-0.148446 -0.39036,0 -0.74223,0.142948 -0.35187,0.142948 -0.63227,0.395856 -0.2749,0.252908 -0.46183,0.599282 -0.18693,0.340876 -0.24741,0.736732 z"
         style="font-style:normal;font-variant:normal;font-weight:normal;font-stretch:normal;font-family:COCOMAT;-inkscape-font-specification:COCOMAT;stroke-width:0.274901"
         id="path924" />
      <path
         d="m 234.93533,82.538916 q -0.17593,-0.285896 -0.47283,-0.46733 -0.29689,-0.181434 -0.67625,-0.181434 -0.23641,0 -0.43434,0.06598 -0.19793,0.06598 -0.34088,0.186932 -0.14295,0.120956 -0.22542,0.291394 -0.077,0.16494 -0.077,0.368366 0,0.197928 0.099,0.351872 0.10446,0.148446 0.2584,0.258406 0.15395,0.104462 0.33538,0.175936 0.18693,0.07147 0.35187,0.115458 l 0.16494,0.04398 q 0.40136,0.10996 0.72024,0.269402 0.32438,0.159442 0.5498,0.368366 0.22542,0.203426 0.34637,0.456334 0.12096,0.252908 0.12096,0.544302 0,0.373864 -0.15394,0.665258 -0.15395,0.291394 -0.41785,0.489322 -0.25841,0.197928 -0.60478,0.296892 -0.34088,0.104462 -0.72024,0.104462 -0.31339,0 -0.60478,-0.07147 -0.2859,-0.07147 -0.53331,-0.208924 -0.24191,-0.142948 -0.42334,-0.351872 -0.17594,-0.214422 -0.26391,-0.489322 -0.0165,-0.03849 -0.0165,-0.07147 0,-0.04398 0.033,-0.09347 0.0385,-0.05498 0.099,-0.08247 l 0.20893,-0.09347 q 0.0495,-0.01649 0.0825,-0.01649 0.055,0 0.0935,0.03299 0.0385,0.03299 0.066,0.08247 l 0.0275,0.05498 q 0.088,0.175936 0.23091,0.313386 0.14845,0.13745 0.31889,0.230916 0.17593,0.09347 0.35187,0.142948 0.18143,0.04398 0.32988,0.04398 0.19793,0 0.42335,-0.05498 0.22541,-0.06048 0.41784,-0.175936 0.19243,-0.120956 0.31889,-0.30239 0.12645,-0.181434 0.12645,-0.434342 0,-0.236414 -0.12645,-0.41235 -0.12646,-0.181434 -0.32438,-0.307888 -0.19793,-0.131952 -0.43984,-0.21992 -0.24192,-0.08797 -0.47283,-0.142948 -0.2859,-0.08247 -0.57179,-0.21992 -0.2804,-0.13745 -0.50582,-0.324382 -0.21992,-0.19243 -0.35737,-0.434342 -0.13745,-0.241912 -0.13745,-0.527808 0,-0.335378 0.12096,-0.610278 0.12095,-0.2749 0.33537,-0.472828 0.21992,-0.197928 0.52781,-0.30239 0.31339,-0.10996 0.69275,-0.10996 0.5498,0 0.98964,0.236414 0.44534,0.236414 0.73123,0.736732 0.0275,0.06598 0.0275,0.10996 0,0.03849 -0.022,0.08247 -0.022,0.03849 -0.066,0.06598 l -0.19243,0.115458 q -0.077,0.04948 -0.13196,0.04948 -0.0605,0 -0.088,-0.03299 -0.0275,-0.03299 -0.0715,-0.09347 l -0.033,-0.04398 z"
         style="font-style:normal;font-variant:normal;font-weight:normal;font-stretch:normal;font-family:COCOMAT;-inkscape-font-specification:COCOMAT;stroke-width:0.274901"
         id="path926" />
    </g>
  </g>
</svg>
